# xmcd CD database file
#
# Track frame offsets:
#	150
#	9967
#	22550
#	35035
#	45115
#	58805
#	70870
#	83340
#	94742
#	105957
#	120590
#	140290
#
# Disc length: 2031 seconds
#
# Revision: 2
# Processed by: cddbd v1.5PL3 Copyright (c) Steve Scherf et al.
# Submitted via: CDex 1.50
#
DISCID=7d07ed0c
DTITLE=Koko Taylor - Love You Like A Woman
DYEAR=1969
DGENRE=Blues
TTITLE0=Love You Like A Woman
TTITLE1=I Love A Lover Like You
TTITLE2=Don't Mess With The Messer
TTITLE3=I Don't Care Who Knows
TTITLE4=Wang Dang Doodle
TTITLE5=I'm A Little Mixed Up
TTITLE6=Nitty Gritty
TTITLE7=Fire
TTITLE8=Whatever I Am, You Made Me
TTITLE9=Twenty-Nine Ways
TTITLE10=Insane Asylum
TTITLE11=Yes, It's Good For You
EXTD=YEAR: 1969
EXTT0=
EXTT1=
EXTT2=
EXTT3=
EXTT4=
EXTT5=
EXTT6=
EXTT7=
EXTT8=
EXTT9=
EXTT10=
EXTT11=
PLAYORDER=
